<svg width="282" height="81" viewBox="0 0 282 81" fill="none" xmlns="http://www.w3.org/2000/svg">
<g filter="url(#filter0_d_330_171)">
<path d="M6 71L6 17.981M39.5 38.3171L6 4L6 17.981M39.5 38.3171L73 4V71M39.5 38.3171L32.9457 44.8537L6 17.981" stroke="#FCF8F0" stroke-width="3"/>
</g>
<path d="M92.8352 31V0.359999H92.8752L109.235 23.56L106.755 23L123.075 0.359999H123.155V31H117.355V13.44L117.715 16.44L107.755 30.6H107.675L97.4352 16.44L98.4352 13.68V31H92.8352Z" fill="#FCF8F0"/>
<path d="M132.929 2.76H134.289V31H132.929V2.76ZM168.114 31.6L145.714 5.4L146.074 5L146.114 31H144.754V2.24H144.834L167.354 28.68L166.874 28.76V2.76H168.154V31.6H168.114ZM178.649 31V2.76H185.369C188.063 2.76 190.369 3.2 192.289 4.08C194.209 4.93333 195.756 6.06667 196.929 7.48C198.129 8.86667 199.009 10.4 199.569 12.08C200.129 13.7333 200.409 15.3733 200.409 17C200.409 19.1333 200.036 21.0667 199.289 22.8C198.543 24.5067 197.529 25.9733 196.249 27.2C194.969 28.4267 193.503 29.3733 191.849 30.04C190.223 30.68 188.503 31 186.689 31H178.649ZM180.009 29.68H186.249C188.009 29.68 189.663 29.3867 191.209 28.8C192.756 28.2133 194.103 27.3733 195.249 26.28C196.423 25.16 197.343 23.8133 198.009 22.24C198.676 20.6667 199.009 18.8933 199.009 16.92C199.009 15.3467 198.743 13.8 198.209 12.28C197.676 10.76 196.849 9.38667 195.729 8.16C194.636 6.90667 193.223 5.92 191.489 5.2C189.783 4.48 187.756 4.12 185.409 4.12H180.009V29.68ZM209.107 2.76H224.627V4.08H210.467V16.56H223.067V17.84H210.467V31H209.107V2.76ZM234.556 21.6C234.556 23.36 234.903 24.8667 235.596 26.12C236.289 27.3733 237.236 28.3333 238.436 29C239.663 29.6667 241.049 30 242.596 30C244.169 30 245.569 29.6667 246.796 29C248.023 28.3333 248.983 27.3733 249.676 26.12C250.396 24.8667 250.756 23.36 250.756 21.6V2.76H252.076V21.72C252.076 23.7733 251.649 25.52 250.796 26.96C249.969 28.3733 248.836 29.4533 247.396 30.2C245.983 30.9467 244.383 31.32 242.596 31.32C240.809 31.32 239.209 30.9467 237.796 30.2C236.383 29.4533 235.263 28.3733 234.436 26.96C233.609 25.52 233.196 23.7733 233.196 21.72V2.76H234.556V21.6ZM262.484 2.76H263.844V29.68H279.684V31H262.484V2.76Z" fill="#FCF8F0"/>
<path d="M132.929 42.76H134.289V71H132.929V42.76ZM168.914 71.6L146.514 45.4L146.874 45L146.914 71H145.554V42.24H145.634L168.154 68.68L167.674 68.76V42.76H168.954V71.6H168.914ZM181.529 61.6C181.529 63.36 181.876 64.8667 182.569 66.12C183.263 67.3733 184.209 68.3333 185.409 69C186.636 69.6667 188.023 70 189.569 70C191.143 70 192.543 69.6667 193.769 69C194.996 68.3333 195.956 67.3733 196.649 66.12C197.369 64.8667 197.729 63.36 197.729 61.6V42.76H199.049V61.72C199.049 63.7733 198.623 65.52 197.769 66.96C196.943 68.3733 195.809 69.4533 194.369 70.2C192.956 70.9467 191.356 71.32 189.569 71.32C187.783 71.32 186.183 70.9467 184.769 70.2C183.356 69.4533 182.236 68.3733 181.409 66.96C180.583 65.52 180.169 63.7733 180.169 61.72V42.76H181.529V61.6ZM207.937 42.76H226.337V44.08H217.777V71H216.417V44.08H207.937V42.76ZM235.304 42.76H252.424V44.08H236.664V56.12H250.864V57.4H236.664V69.68H252.984V71H235.304V42.76ZM276.335 45.36C275.561 44.9867 274.575 44.64 273.375 44.32C272.175 43.9733 270.961 43.8 269.735 43.8C267.761 43.8 266.188 44.2933 265.015 45.28C263.841 46.2667 263.255 47.5067 263.255 49C263.255 50.12 263.575 51.0533 264.215 51.8C264.881 52.52 265.748 53.1333 266.815 53.64C267.881 54.1467 269.015 54.64 270.215 55.12C271.175 55.4667 272.108 55.8533 273.015 56.28C273.948 56.7067 274.788 57.2267 275.535 57.84C276.308 58.4267 276.921 59.1733 277.375 60.08C277.828 60.9867 278.055 62.0933 278.055 63.4C278.055 65 277.681 66.4 276.935 67.6C276.188 68.7733 275.161 69.6933 273.855 70.36C272.548 71 271.055 71.32 269.375 71.32C267.908 71.32 266.588 71.1333 265.415 70.76C264.241 70.3867 263.241 69.9733 262.415 69.52C261.615 69.0667 261.001 68.7067 260.575 68.44L261.215 67.28C261.801 67.7067 262.508 68.1333 263.335 68.56C264.188 68.9867 265.121 69.36 266.135 69.68C267.148 69.9733 268.161 70.12 269.175 70.12C270.401 70.12 271.588 69.88 272.735 69.4C273.881 68.8933 274.815 68.1467 275.535 67.16C276.281 66.1733 276.655 64.9333 276.655 63.44C276.655 61.9467 276.295 60.76 275.575 59.88C274.881 58.9733 273.975 58.2533 272.855 57.72C271.761 57.16 270.601 56.6533 269.375 56.2C268.468 55.8533 267.561 55.4933 266.655 55.12C265.775 54.72 264.961 54.2667 264.215 53.76C263.495 53.2267 262.921 52.5867 262.495 51.84C262.068 51.0933 261.855 50.2 261.855 49.16C261.855 47.8533 262.188 46.72 262.855 45.76C263.548 44.7733 264.468 44.0133 265.615 43.48C266.788 42.92 268.108 42.6267 269.575 42.6C270.748 42.6 272.015 42.76 273.375 43.08C274.735 43.4 275.908 43.8133 276.895 44.32L276.335 45.36Z" fill="#FCF8F0"/>
<path d="M92.8352 71V40.36H92.8752L109.235 63.56L106.755 63L123.075 40.36H123.155V71H117.355V53.44L117.715 56.44L107.755 70.6H107.675L97.4352 56.44L98.4352 53.68V71H92.8352Z" fill="#FCF8F0"/>
<defs>
<filter id="filter0_d_330_171" x="0.5" y="0.31604" width="78" height="78.684" filterUnits="userSpaceOnUse" color-interpolation-filters="sRGB">
<feFlood flood-opacity="0" result="BackgroundImageFix"/>
<feColorMatrix in="SourceAlpha" type="matrix" values="0 0 0 0 0 0 0 0 0 0 0 0 0 0 0 0 0 0 127 0" result="hardAlpha"/>
<feOffset dy="4"/>
<feGaussianBlur stdDeviation="2"/>
<feComposite in2="hardAlpha" operator="out"/>
<feColorMatrix type="matrix" values="0 0 0 0 0 0 0 0 0 0 0 0 0 0 0 0 0 0 0.25 0"/>
<feBlend mode="normal" in2="BackgroundImageFix" result="effect1_dropShadow_330_171"/>
<feBlend mode="normal" in="SourceGraphic" in2="effect1_dropShadow_330_171" result="shape"/>
</filter>
</defs>
</svg>
