<?xml version="1.0" encoding="UTF-8" standalone="no"?>
<svg
   width="308.974"
   height="78.487999"
   viewBox="0 0 308.974 78.487999"
   fill="none"
   version="1.1"
   id="svg229"
   sodipodi:docname="Group 19.svg"
   inkscape:version="1.2.2 (732a01da63, 2022-12-09, custom)"
   xmlns:inkscape="http://www.inkscape.org/namespaces/inkscape"
   xmlns:sodipodi="http://sodipodi.sourceforge.net/DTD/sodipodi-0.dtd"
   xmlns="http://www.w3.org/2000/svg"
   xmlns:svg="http://www.w3.org/2000/svg">
  <sodipodi:namedview
     id="namedview231"
     pagecolor="#505050"
     bordercolor="#ffffff"
     borderopacity="1"
     inkscape:showpageshadow="0"
     inkscape:pageopacity="0"
     inkscape:pagecheckerboard="1"
     inkscape:deskcolor="#505050"
     showgrid="false"
     inkscape:zoom="2.6202532"
     inkscape:cx="153.42029"
     inkscape:cy="44.842995"
     inkscape:window-width="3840"
     inkscape:window-height="2096"
     inkscape:window-x="1920"
     inkscape:window-y="27"
     inkscape:window-maximized="1"
     inkscape:current-layer="g208" />
  <path
     d="M 93.3022,36.768002 V 0 h 0.048 l 19.6318,27.840002 -2.976,-0.672 L 129.59,0 h 0.096 v 36.768002 h -6.96 v -21.072 l 0.432,3.6 -11.952,16.992 h -0.096 l -12.288,-16.992 1.2,-3.312 v 20.784 z"
     fill="#1a1f14"
     id="path198" />
  <path
     d="m 93.3022,77.768002 v -36.768 h 0.048 l 19.6318,27.84 -2.976,-0.672 19.584,-27.168 h 0.096 v 36.768 h -6.96 v -21.072 l 0.432,3.6 -11.952,16.992 h -0.096 l -12.288,-16.992 1.2,-3.312 v 20.784 z"
     fill="#1a1f14"
     id="path200" />
  <path
     d="m 140.068,2.880002 h 1.632 v 33.888 h -1.632 z m 40.782,34.608 -26.88,-31.44 0.432,-0.48 0.048,31.2 h -1.632 v -34.512 h 0.096 l 27.024,31.728 -0.576,0.096 v -31.2 h 1.536 v 34.608 z m 11.202,-0.72 v -33.888 h 8.064 c 3.232,0 6,0.528 8.304,1.584 2.304,1.024 4.16,2.384 5.568,4.08 1.44,1.664 2.496,3.504 3.168,5.52 0.672,1.984 1.008,3.952 1.008,5.904 0,2.56 -0.448,4.88 -1.344,6.96 -0.896,2.048 -2.112,3.808 -3.648,5.28 -1.536,1.472 -3.296,2.608 -5.28,3.408 -1.952,0.768 -4.016,1.152 -6.192,1.152 z m 1.632,-1.584 h 7.488 c 2.112,0 4.096,-0.352 5.952,-1.056 1.856,-0.704 3.472,-1.712 4.848,-3.024 1.408,-1.344 2.512,-2.96 3.312,-4.848 0.8,-1.888 1.2,-4.016 1.2,-6.384 0,-1.888 -0.32,-3.744 -0.96,-5.568 -0.64,-1.824 -1.632,-3.472 -2.976,-4.944 -1.312,-1.504 -3.008,-2.688 -5.088,-3.552 -2.048,-0.864 -4.48,-1.296 -7.296,-1.296 h -6.48 z m 33.478,-32.304 h 18.624 v 1.584 h -16.992 v 14.976 h 15.12 v 1.536 h -15.12 v 15.792 h -1.632 z m 29.098,22.608 c 0,2.112 0.416,3.92 1.248,5.424 0.832,1.504 1.968,2.656 3.408,3.456 1.472,0.8 3.136,1.2 4.992,1.2 1.888,0 3.568,-0.4 5.04,-1.2 1.472,-0.8 2.624,-1.952 3.456,-3.456 0.864,-1.504 1.296,-3.312 1.296,-5.424 v -22.608 h 1.584 v 22.752 c 0,2.464 -0.512,4.56 -1.536,6.288 -0.992,1.696 -2.352,2.992 -4.08,3.888 -1.696,0.896 -3.616,1.344 -5.76,1.344 -2.144,0 -4.064,-0.448 -5.76,-1.344 -1.696,-0.896 -3.04,-2.192 -4.032,-3.888 -0.992,-1.728 -1.488,-3.824 -1.488,-6.288 v -22.752 h 1.632 z m 32.074,-22.608 h 1.632 v 32.304 h 19.008 v 1.584 h -20.64 z"
     fill="#1a1f14"
     id="path202" />
  <path
     d="m 140.068,43.880002 h 1.632 v 33.888 h -1.632 z m 40.782,34.608 -26.88,-31.44 0.432,-0.48 0.048,31.2 h -1.632 v -34.512 h 0.096 l 27.024,31.728 -0.576,0.096 v -31.2 h 1.536 v 34.608 z m 12.738,-12 c 0,2.112 0.416,3.92 1.248,5.424 0.832,1.504 1.968,2.656 3.408,3.456 1.472,0.8 3.136,1.2 4.992,1.2 1.888,0 3.568,-0.4 5.04,-1.2 1.472,-0.8 2.624,-1.952 3.456,-3.456 0.864,-1.504 1.296,-3.312 1.296,-5.424 v -22.608 h 1.584 v 22.752 c 0,2.464 -0.512,4.56 -1.536,6.288 -0.992,1.696 -2.352,2.992 -4.08,3.888 -1.696,0.896 -3.616,1.344 -5.76,1.344 -2.144,0 -4.064,-0.448 -5.76,-1.344 -1.696,-0.896 -3.04,-2.192 -4.032,-3.888 -0.992,-1.728 -1.488,-3.824 -1.488,-6.288 v -22.752 h 1.632 z m 29.29,-22.608 h 22.08 v 1.584 h -10.272 v 32.304 h -1.632 v -32.304 h -10.176 z m 30.44,0 h 20.544 v 1.584 H 254.95 v 14.448 h 17.04 v 1.536 h -17.04 v 14.736 h 19.584 v 1.584 h -21.216 z m 46.837,3.12 c -0.928,-0.448 -2.112,-0.864 -3.552,-1.248 -1.44,-0.416 -2.896,-0.624 -4.368,-0.624 -2.368,0 -4.256,0.592 -5.664,1.776 -1.408,1.184 -2.112,2.672 -2.112,4.464 0,1.344 0.384,2.464 1.152,3.36 0.8,0.864 1.84,1.6 3.12,2.208 1.28,0.608 2.64,1.2 4.08,1.776 1.152,0.416 2.272,0.88 3.36,1.392 1.12,0.512 2.128,1.136 3.024,1.872 0.928,0.704 1.664,1.6 2.208,2.688 0.544,1.088 0.816,2.416 0.816,3.984 0,1.92 -0.448,3.6 -1.344,5.04 -0.896,1.408 -2.128,2.512 -3.696,3.312 -1.568,0.768 -3.36,1.152 -5.376,1.152 -1.76,0 -3.344,-0.224 -4.752,-0.672 -1.408,-0.448 -2.608,-0.944 -3.6,-1.488 -0.96,-0.544 -1.696,-0.976 -2.208,-1.296 l 0.768,-1.392 c 0.704,0.512 1.552,1.024 2.544,1.536 1.024,0.512 2.144,0.96 3.36,1.344 1.216,0.352 2.432,0.528 3.648,0.528 1.472,0 2.896,-0.288 4.272,-0.864 1.376,-0.608 2.496,-1.504 3.36,-2.688 0.896,-1.184 1.344,-2.672 1.344,-4.464 0,-1.792 -0.432,-3.216 -1.296,-4.272 -0.832,-1.088 -1.92,-1.952 -3.264,-2.592 -1.312,-0.672 -2.704,-1.28 -4.176,-1.824 -1.088,-0.416 -2.176,-0.848 -3.264,-1.296 -1.056,-0.48 -2.032,-1.024 -2.928,-1.632 -0.864,-0.64 -1.552,-1.408 -2.064,-2.304 -0.512,-0.896 -0.768,-1.968 -0.768,-3.216 0,-1.568 0.4,-2.928 1.2,-4.08 0.832,-1.184 1.936,-2.096 3.312,-2.736 1.408,-0.672 2.992,-1.024 4.752,-1.056 1.408,0 2.928,0.192 4.56,0.576 1.632,0.384 3.04,0.88 4.224,1.488 z"
     fill="#1a1f14"
     id="path204" />
  <g
     filter="url(#filter0_d_35_227)"
     id="g208"
     transform="translate(-4.5,-0.231998)">
    <path
       d="M 6,78 V 19.4417 M 43,41.9024 6,4 V 19.4417 M 43,41.9024 80,4 V 78 M 43,41.9024 35.7609,49.122 6,19.4417"
       stroke="#1a1f14"
       stroke-width="3"
       id="path206" />
  </g>
  <defs
     id="defs227">
    <filter
       id="filter0_d_35_227"
       x="0.5"
       y="0.31616199"
       width="85"
       height="85.6838"
       filterUnits="userSpaceOnUse"
       color-interpolation-filters="sRGB">
      <feFlood
         flood-opacity="0"
         result="BackgroundImageFix"
         id="feFlood210" />
      <feColorMatrix
         in="SourceAlpha"
         type="matrix"
         values="0 0 0 0 0 0 0 0 0 0 0 0 0 0 0 0 0 0 127 0"
         result="hardAlpha"
         id="feColorMatrix212" />
      <feOffset
         dy="4"
         id="feOffset214" />
      <feGaussianBlur
         stdDeviation="2"
         id="feGaussianBlur216" />
      <feComposite
         in2="hardAlpha"
         operator="out"
         id="feComposite218" />
      <feColorMatrix
         type="matrix"
         values="0 0 0 0 0 0 0 0 0 0 0 0 0 0 0 0 0 0 0.25 0"
         id="feColorMatrix220" />
      <feBlend
         mode="normal"
         in2="BackgroundImageFix"
         result="effect1_dropShadow_35_227"
         id="feBlend222" />
      <feBlend
         mode="normal"
         in="SourceGraphic"
         in2="effect1_dropShadow_35_227"
         result="shape"
         id="feBlend224" />
    </filter>
  </defs>
</svg>
