<svg width="129" height="39" viewBox="0 0 129 39" fill="none" xmlns="http://www.w3.org/2000/svg">
<path d="M64.4181 1.292H65.0301V14H64.4181V1.292ZM79.7113 14.27L69.6313 2.48L69.7933 2.3L69.8113 14H69.1993V1.058H69.2353L79.3693 12.956L79.1533 12.992V1.292H79.7293V14.27H79.7113ZM83.9122 14V1.292H86.9362C88.1482 1.292 89.1862 1.49 90.0502 1.886C90.9142 2.27 91.6102 2.78 92.1382 3.416C92.6782 4.04 93.0742 4.73 93.3262 5.486C93.5782 6.23 93.7042 6.968 93.7042 7.7C93.7042 8.66 93.5362 9.53 93.2002 10.31C92.8642 11.078 92.4082 11.738 91.8322 12.29C91.2562 12.842 90.5962 13.268 89.8522 13.568C89.1202 13.856 88.3462 14 87.5302 14H83.9122ZM84.5242 13.406H87.3322C88.1242 13.406 88.8682 13.274 89.5642 13.01C90.2602 12.746 90.8662 12.368 91.3822 11.876C91.9102 11.372 92.3242 10.766 92.6242 10.058C92.9242 9.35 93.0742 8.552 93.0742 7.664C93.0742 6.956 92.9542 6.26 92.7142 5.576C92.4742 4.892 92.1022 4.274 91.5982 3.722C91.1062 3.158 90.4702 2.714 89.6902 2.39C88.9222 2.066 88.0102 1.904 86.9542 1.904H84.5242V13.406ZM97.0782 1.292H104.062V1.886H97.6902V7.502H103.36V8.078H97.6902V14H97.0782V1.292ZM107.99 9.77C107.99 10.562 108.146 11.24 108.458 11.804C108.77 12.368 109.196 12.8 109.736 13.1C110.288 13.4 110.912 13.55 111.608 13.55C112.316 13.55 112.946 13.4 113.498 13.1C114.05 12.8 114.482 12.368 114.794 11.804C115.118 11.24 115.28 10.562 115.28 9.77V1.292H115.874V9.824C115.874 10.748 115.682 11.534 115.298 12.182C114.926 12.818 114.416 13.304 113.768 13.64C113.132 13.976 112.412 14.144 111.608 14.144C110.804 14.144 110.084 13.976 109.448 13.64C108.812 13.304 108.308 12.818 107.936 12.182C107.564 11.534 107.378 10.748 107.378 9.824V1.292H107.99V9.77ZM120.018 1.292H120.63V13.406H127.758V14H120.018V1.292Z" fill="#FCF8F0"/>
<path d="M46.1758 14V0.211999H46.1938L53.5558 10.652L52.4398 10.4L59.7838 0.211999H59.8198V14H57.2098V6.098L57.3718 7.448L52.8898 13.82H52.8538L48.2458 7.448L48.6958 6.206V14H46.1758Z" fill="#FCF8F0"/>
<path d="M46.1758 31V17.212H46.1938L53.5558 27.652L52.4398 27.4L59.7838 17.212H59.8198V31H57.2098V23.098L57.3718 24.448L52.8898 30.82H52.8538L48.2458 24.448L48.6958 23.206V31H46.1758Z" fill="#FCF8F0"/>
<path d="M64.4181 18.292H65.0301V31H64.4181V18.292ZM79.7113 31.27L69.6313 19.48L69.7933 19.3L69.8113 31H69.1993V18.058H69.2353L79.3693 29.956L79.1533 29.992V18.292H79.7293V31.27H79.7113ZM83.9122 31V18.292H86.9362C88.1482 18.292 89.1862 18.49 90.0502 18.886C90.9142 19.27 91.6102 19.78 92.1382 20.416C92.6782 21.04 93.0742 21.73 93.3262 22.486C93.5782 23.23 93.7042 23.968 93.7042 24.7C93.7042 25.66 93.5362 26.53 93.2002 27.31C92.8642 28.078 92.4082 28.738 91.8322 29.29C91.2562 29.842 90.5962 30.268 89.8522 30.568C89.1202 30.856 88.3462 31 87.5302 31H83.9122ZM84.5242 30.406H87.3322C88.1242 30.406 88.8682 30.274 89.5642 30.01C90.2602 29.746 90.8662 29.368 91.3822 28.876C91.9102 28.372 92.3242 27.766 92.6242 27.058C92.9242 26.35 93.0742 25.552 93.0742 24.664C93.0742 23.956 92.9542 23.26 92.7142 22.576C92.4742 21.892 92.1022 21.274 91.5982 20.722C91.1062 20.158 90.4702 19.714 89.6902 19.39C88.9222 19.066 88.0102 18.904 86.9542 18.904H84.5242V30.406ZM97.0782 18.292H104.062V18.886H97.6902V24.502H103.36V25.078H97.6902V31H97.0782V18.292ZM107.99 26.77C107.99 27.562 108.146 28.24 108.458 28.804C108.77 29.368 109.196 29.8 109.736 30.1C110.288 30.4 110.912 30.55 111.608 30.55C112.316 30.55 112.946 30.4 113.498 30.1C114.05 29.8 114.482 29.368 114.794 28.804C115.118 28.24 115.28 27.562 115.28 26.77V18.292H115.874V26.824C115.874 27.748 115.682 28.534 115.298 29.182C114.926 29.818 114.416 30.304 113.768 30.64C113.132 30.976 112.412 31.144 111.608 31.144C110.804 31.144 110.084 30.976 109.448 30.64C108.812 30.304 108.308 29.818 107.936 29.182C107.564 28.534 107.378 27.748 107.378 26.824V18.292H107.99V26.77ZM120.018 18.292H120.63V30.406H127.758V31H120.018V18.292Z" fill="#FCF8F0"/>
<g filter="url(#filter0_d_49_326)">
<path d="M6 31L6 9.63415M19.5 17.8293L6 4L6 9.63415M19.5 17.8293L33 4V31M19.5 17.8293L16.8587 20.4634L6 9.63415" stroke="#FCF8F0" stroke-width="3"/>
</g>
<defs>
<filter id="filter0_d_49_326" x="0.5" y="0.31604" width="38" height="38.684" filterUnits="userSpaceOnUse" color-interpolation-filters="sRGB">
<feFlood flood-opacity="0" result="BackgroundImageFix"/>
<feColorMatrix in="SourceAlpha" type="matrix" values="0 0 0 0 0 0 0 0 0 0 0 0 0 0 0 0 0 0 127 0" result="hardAlpha"/>
<feOffset dy="4"/>
<feGaussianBlur stdDeviation="2"/>
<feComposite in2="hardAlpha" operator="out"/>
<feColorMatrix type="matrix" values="0 0 0 0 0 0 0 0 0 0 0 0 0 0 0 0 0 0 0.25 0"/>
<feBlend mode="normal" in2="BackgroundImageFix" result="effect1_dropShadow_49_326"/>
<feBlend mode="normal" in="SourceGraphic" in2="effect1_dropShadow_49_326" result="shape"/>
</filter>
</defs>
</svg>
