<svg width="316" height="90" viewBox="0 0 316 90" fill="none" xmlns="http://www.w3.org/2000/svg">
<path d="M97.8022 37V0.231998H97.8502L117.482 28.072L114.506 27.4L134.09 0.231998H134.186V37H127.226V15.928L127.658 19.528L115.706 36.52H115.61L103.322 19.528L104.522 16.216V37H97.8022Z" fill="#1A1F14"/>
<path d="M97.8022 78V41.232H97.8502L117.482 69.072L114.506 68.4L134.09 41.232H134.186V78H127.226V56.928L127.658 60.528L115.706 77.52H115.61L103.322 60.528L104.522 57.216V78H97.8022Z" fill="#1A1F14"/>
<path d="M144.568 3.112H146.2V37H144.568V3.112ZM185.35 37.72L158.47 6.28L158.902 5.8L158.95 37H157.318V2.488H157.414L184.438 34.216L183.862 34.312V3.112H185.398V37.72H185.35ZM196.552 37V3.112H204.616C207.848 3.112 210.616 3.64 212.92 4.696C215.224 5.72 217.08 7.08 218.488 8.776C219.928 10.44 220.984 12.28 221.656 14.296C222.328 16.28 222.664 18.248 222.664 20.2C222.664 22.76 222.216 25.08 221.32 27.16C220.424 29.208 219.208 30.968 217.672 32.44C216.136 33.912 214.376 35.048 212.392 35.848C210.44 36.616 208.376 37 206.2 37H196.552ZM198.184 35.416H205.672C207.784 35.416 209.768 35.064 211.624 34.36C213.48 33.656 215.096 32.648 216.472 31.336C217.88 29.992 218.984 28.376 219.784 26.488C220.584 24.6 220.984 22.472 220.984 20.104C220.984 18.216 220.664 16.36 220.024 14.536C219.384 12.712 218.392 11.064 217.048 9.592C215.736 8.088 214.04 6.904 211.96 6.04C209.912 5.176 207.48 4.744 204.664 4.744H198.184V35.416ZM231.662 3.112H250.286V4.696H233.294V19.672H248.414V21.208H233.294V37H231.662V3.112ZM260.76 25.72C260.76 27.832 261.176 29.64 262.008 31.144C262.84 32.648 263.976 33.8 265.416 34.6C266.888 35.4 268.552 35.8 270.408 35.8C272.296 35.8 273.976 35.4 275.448 34.6C276.92 33.8 278.072 32.648 278.904 31.144C279.768 29.64 280.2 27.832 280.2 25.72V3.112H281.784V25.864C281.784 28.328 281.272 30.424 280.248 32.152C279.256 33.848 277.896 35.144 276.168 36.04C274.472 36.936 272.552 37.384 270.408 37.384C268.264 37.384 266.344 36.936 264.648 36.04C262.952 35.144 261.608 33.848 260.616 32.152C259.624 30.424 259.128 28.328 259.128 25.864V3.112H260.76V25.72ZM292.834 3.112H294.466V35.416H313.474V37H292.834V3.112Z" fill="#1A1F14"/>
<path d="M144.568 44.112H146.2V78H144.568V44.112ZM185.35 78.72L158.47 47.28L158.902 46.8L158.95 78H157.318V43.488H157.414L184.438 75.216L183.862 75.312V44.112H185.398V78.72H185.35ZM198.088 66.72C198.088 68.832 198.504 70.64 199.336 72.144C200.168 73.648 201.304 74.8 202.744 75.6C204.216 76.4 205.88 76.8 207.736 76.8C209.624 76.8 211.304 76.4 212.776 75.6C214.248 74.8 215.4 73.648 216.232 72.144C217.096 70.64 217.528 68.832 217.528 66.72V44.112H219.112V66.864C219.112 69.328 218.6 71.424 217.576 73.152C216.584 74.848 215.224 76.144 213.496 77.04C211.8 77.936 209.88 78.384 207.736 78.384C205.592 78.384 203.672 77.936 201.976 77.04C200.28 76.144 198.936 74.848 197.944 73.152C196.952 71.424 196.456 69.328 196.456 66.864V44.112H198.088V66.72ZM227.378 44.112H249.458V45.696H239.186V78H237.554V45.696H227.378V44.112ZM257.818 44.112H278.362V45.696H259.45V60.144H276.49V61.68H259.45V76.416H279.034V78H257.818V44.112ZM304.655 47.232C303.727 46.784 302.543 46.368 301.103 45.984C299.663 45.568 298.207 45.36 296.735 45.36C294.367 45.36 292.479 45.952 291.071 47.136C289.663 48.32 288.959 49.808 288.959 51.6C288.959 52.944 289.343 54.064 290.111 54.96C290.911 55.824 291.951 56.56 293.231 57.168C294.511 57.776 295.871 58.368 297.311 58.944C298.463 59.36 299.583 59.824 300.671 60.336C301.791 60.848 302.799 61.472 303.695 62.208C304.623 62.912 305.359 63.808 305.903 64.896C306.447 65.984 306.719 67.312 306.719 68.88C306.719 70.8 306.271 72.48 305.375 73.92C304.479 75.328 303.247 76.432 301.679 77.232C300.111 78 298.319 78.384 296.303 78.384C294.543 78.384 292.959 78.16 291.551 77.712C290.143 77.264 288.943 76.768 287.951 76.224C286.991 75.68 286.255 75.248 285.743 74.928L286.511 73.536C287.215 74.048 288.063 74.56 289.055 75.072C290.079 75.584 291.199 76.032 292.415 76.416C293.631 76.768 294.847 76.944 296.063 76.944C297.535 76.944 298.959 76.656 300.335 76.08C301.711 75.472 302.831 74.576 303.695 73.392C304.591 72.208 305.039 70.72 305.039 68.928C305.039 67.136 304.607 65.712 303.743 64.656C302.911 63.568 301.823 62.704 300.479 62.064C299.167 61.392 297.775 60.784 296.303 60.24C295.215 59.824 294.127 59.392 293.039 58.944C291.983 58.464 291.007 57.92 290.111 57.312C289.247 56.672 288.559 55.904 288.047 55.008C287.535 54.112 287.279 53.04 287.279 51.792C287.279 50.224 287.679 48.864 288.479 47.712C289.311 46.528 290.415 45.616 291.791 44.976C293.199 44.304 294.783 43.952 296.543 43.92C297.951 43.92 299.471 44.112 301.103 44.496C302.735 44.88 304.143 45.376 305.327 45.984L304.655 47.232Z" fill="#1A1F14"/>
<g filter="url(#filter0_d_35_227)">
<path d="M6 78L6 19.4417M43 41.9024L6 4L6 19.4417M43 41.9024L80 4V78M43 41.9024L35.7609 49.122L6 19.4417" stroke="black" stroke-width="3"/>
</g>
<defs>
<filter id="filter0_d_35_227" x="0.5" y="0.316162" width="85" height="85.6838" filterUnits="userSpaceOnUse" color-interpolation-filters="sRGB">
<feFlood flood-opacity="0" result="BackgroundImageFix"/>
<feColorMatrix in="SourceAlpha" type="matrix" values="0 0 0 0 0 0 0 0 0 0 0 0 0 0 0 0 0 0 127 0" result="hardAlpha"/>
<feOffset dy="4"/>
<feGaussianBlur stdDeviation="2"/>
<feComposite in2="hardAlpha" operator="out"/>
<feColorMatrix type="matrix" values="0 0 0 0 0 0 0 0 0 0 0 0 0 0 0 0 0 0 0.25 0"/>
<feBlend mode="normal" in2="BackgroundImageFix" result="effect1_dropShadow_35_227"/>
<feBlend mode="normal" in="SourceGraphic" in2="effect1_dropShadow_35_227" result="shape"/>
</filter>
</defs>
</svg>
